M48
;GenerationSoftware,Autodesk,EAGLE,9.6.2*%
;CreationDate,2021-05-04T11:44:41Z*%
FMAT,2
ICI,OFF
METRIC,TZ,000.000
T2C0.300
T1C1.016
%
G90
M71
T1
X50292Y20320
X50292Y17780
X50292Y15240
X50292Y12700
X74168Y12700
X74168Y15240
X74168Y17780
X74168Y20320
X74168Y22860
X74168Y25400
X74168Y27940
X74168Y30480
X66548Y30480
X66548Y27940
X66548Y25400
X66548Y22860
X66548Y20320
X66548Y17780
X66548Y15240
X66548Y12700
X90424Y12700
X90424Y15240
X90424Y17780
X90424Y20320
X90424Y22860
X90424Y25400
X90424Y27940
X90424Y30480
X82804Y30480
X82804Y27940
X82804Y25400
X82804Y22860
X82804Y20320
X82804Y17780
X82804Y15240
X82804Y12700
X106680Y12700
X106680Y15240
X106680Y17780
X106680Y20320
X106680Y22860
X106680Y25400
X106680Y27940
X106680Y30480
X99060Y30480
X99060Y27940
X99060Y25400
X99060Y22860
X99060Y20320
X99060Y17780
X99060Y15240
X99060Y12700
X122936Y12700
X122936Y15240
X122936Y17780
X122936Y20320
X122936Y22860
X122936Y25400
X122936Y27940
X122936Y30480
X115316Y30480
X115316Y27940
X115316Y25400
X115316Y22860
X115316Y20320
X115316Y17780
X115316Y15240
X115316Y12700
X139192Y12700
X139192Y15240
X139192Y17780
X139192Y20320
X139192Y22860
X139192Y25400
X139192Y27940
X139192Y30480
X131572Y30480
X131572Y27940
X131572Y25400
X131572Y22860
X131572Y20320
X131572Y17780
X131572Y12700
X155448Y12700
X155448Y15240
X155448Y17780
X155448Y20320
X155448Y22860
X155448Y25400
X155448Y27940
X155448Y30480
X147828Y30480
X147828Y27940
X147828Y25400
X147828Y22860
X147828Y20320
X147828Y17780
X147828Y15240
X147828Y12700
X9144Y53848
X9144Y56388
X9144Y58928
X9144Y61468
X9144Y64008
X9144Y66548
X9144Y69088
X9144Y71628
X1524Y71628
X1524Y69088
X1524Y66548
X1524Y64008
X1524Y61468
X131572Y15240
X1524Y58928
X1524Y56388
X1524Y53848
X25400Y53848
X25400Y56388
X25400Y58928
X25400Y61468
X25400Y64008
X25400Y66548
X25400Y69088
X25400Y71628
X17780Y71628
X17780Y69088
X17780Y66548
X17780Y64008
X17780Y61468
X17780Y58928
X17780Y56388
X17780Y53848
X41656Y53848
X41656Y56388
X41656Y58928
X41656Y61468
X41656Y64008
X41656Y66548
X41656Y69088
X41656Y71628
X34036Y71628
X34036Y69088
X34036Y66548
X34036Y64008
X34036Y61468
X34036Y58928
X34036Y56388
X34036Y53848
X57912Y53848
X57912Y56388
X57912Y58928
X57912Y61468
X57912Y64008
X57912Y66548
X57912Y69088
X57912Y71628
X50292Y71628
X50292Y69088
X50292Y66548
X50292Y64008
X50292Y61468
X50292Y58928
X50292Y56388
X50292Y53848
X74168Y53848
X74168Y56388
X74168Y58928
X74168Y61468
X74168Y64008
X74168Y66548
X74168Y69088
X74168Y71628
X66548Y71628
X66548Y69088
X66548Y66548
X66548Y64008
X66548Y61468
X66548Y58928
X66548Y56388
X66548Y53848
X90424Y53848
X90424Y56388
X90424Y58928
X90424Y61468
X90424Y64008
X90424Y66548
X90424Y69088
X90424Y71628
X82804Y71628
X82804Y69088
X82804Y66548
X82804Y64008
X82804Y61468
X82804Y58928
X82804Y56388
X82804Y53848
X106680Y53848
X106680Y56388
X106680Y58928
X106680Y61468
X106680Y64008
X106680Y66548
X106680Y69088
X106680Y71628
X99060Y71628
X99060Y69088
X99060Y66548
X99060Y64008
X99060Y61468
X99060Y58928
X99060Y56388
X99060Y53848
X122936Y53848
X122936Y56388
X122936Y58928
X122936Y61468
X122936Y64008
X122936Y66548
X122936Y69088
X122936Y71628
X115316Y71628
X115316Y69088
X115316Y66548
X115316Y64008
X115316Y61468
X115316Y58928
X115316Y56388
X115316Y53848
X139192Y53848
X139192Y56388
X139192Y58928
X139192Y61468
X139192Y64008
X139192Y66548
X139192Y69088
X139192Y71628
X131572Y71628
X131572Y69088
X131572Y66548
X131572Y64008
X131572Y61468
X131572Y58928
X131572Y56388
X131572Y53848
X155448Y53848
X155448Y56388
X155448Y58928
X155448Y61468
X155448Y64008
X155448Y66548
X155448Y69088
X155448Y71628
X147828Y71628
X147828Y69088
X147828Y66548
X147828Y64008
X147828Y61468
X147828Y58928
X147828Y56388
X147828Y53848
X9144Y94996
X9144Y97536
X9144Y100076
X9144Y102616
X9144Y105156
X9144Y107696
X9144Y110236
X9144Y112776
X1524Y112776
X1524Y110236
X1524Y107696
X1524Y105156
X1524Y102616
X1524Y100076
X1524Y97536
X1524Y94996
X25400Y94996
X25400Y97536
X25400Y100076
X25400Y102616
X25400Y105156
X25400Y107696
X25400Y110236
X25400Y112776
X17780Y112776
X17780Y110236
X17780Y107696
X17780Y105156
X17780Y102616
X17780Y100076
X17780Y97536
X17780Y94996
X41656Y94996
X41656Y97536
X41656Y100076
X41656Y102616
X41656Y105156
X41656Y107696
X41656Y110236
X41656Y112776
X34036Y112776
X34036Y110236
X34036Y107696
X34036Y105156
X34036Y102616
X34036Y100076
X34036Y97536
X57912Y94996
X57912Y97536
X57912Y100076
X57912Y102616
X57912Y105156
X57912Y107696
X57912Y110236
X57912Y112776
X50292Y112776
X50292Y110236
X50292Y107696
X50292Y105156
X50292Y102616
X50292Y100076
X50292Y97536
X50292Y94996
X74168Y94996
X74168Y97536
X74168Y100076
X74168Y102616
X74168Y105156
X74168Y107696
X74168Y110236
X74168Y112776
X66548Y112776
X66548Y110236
X66548Y107696
X66548Y105156
X66548Y102616
X66548Y100076
X66548Y97536
X17780Y15240
X66548Y94996
X90424Y94996
X90424Y97536
X90424Y100076
X90424Y102616
X90424Y105156
X90424Y107696
X90424Y110236
X90424Y112776
X82804Y112776
X82804Y110236
X82804Y107696
X82804Y105156
X82804Y102616
X82804Y100076
X82804Y97536
X82804Y94996
X106680Y94996
X106680Y97536
X106680Y100076
X106680Y102616
X106680Y105156
X106680Y107696
X106680Y110236
X106680Y112776
X99060Y112776
X99060Y110236
X99060Y107696
X99060Y105156
X99060Y102616
X99060Y100076
X99060Y97536
X99060Y94996
X122936Y94996
X122936Y97536
X122936Y100076
X122936Y102616
X122936Y105156
X122936Y107696
X122936Y110236
X122936Y112776
X115316Y112776
X115316Y110236
X115316Y107696
X115316Y105156
X115316Y102616
X115316Y100076
X115316Y97536
X115316Y94996
X139192Y94996
X139192Y97536
X139192Y100076
X139192Y102616
X139192Y105156
X139192Y107696
X139192Y110236
X139192Y112776
X131572Y112776
X131572Y110236
X131572Y107696
X131572Y105156
X131572Y102616
X131572Y100076
X131572Y97536
X131572Y94996
X155448Y94996
X155448Y97536
X155448Y100076
X155448Y102616
X155448Y105156
X155448Y107696
X155448Y110236
X155448Y112776
X147828Y112776
X147828Y110236
X147828Y107696
X147828Y105156
X147828Y102616
X147828Y100076
X147828Y97536
X147828Y94996
X9144Y12700
X9144Y15240
X9144Y17780
X9144Y20320
X9144Y22860
X9144Y25400
X9144Y27940
X9144Y30480
X1524Y30480
X1524Y27940
X1524Y25400
X1524Y22860
X1524Y20320
X1524Y17780
X1524Y15240
X1524Y12700
X25400Y12700
X25400Y15240
X25400Y17780
X25400Y20320
X25400Y22860
X25400Y25400
X25400Y27940
X25400Y30480
X17780Y30480
X17780Y27940
X17780Y25400
X17780Y22860
X17780Y20320
X17780Y17780
X34036Y94996
X17780Y12700
X41656Y12700
X41656Y15240
X41656Y17780
X41656Y20320
X41656Y22860
X41656Y25400
X41656Y27940
X41656Y30480
X34036Y30480
X34036Y27940
X34036Y25400
X34036Y22860
X34036Y20320
X34036Y17780
X34036Y15240
X34036Y12700
X57912Y12700
X57912Y15240
X57912Y17780
X57912Y20320
X57912Y22860
X57912Y25400
X57912Y27940
X57912Y30480
X50292Y30480
X50292Y27940
X50292Y25400
X50292Y22860
T2
X8053Y1841
X2615Y1841
X6858Y34290
X6858Y36830
X2540Y35560
X3810Y38100
X6858Y38100
X1651Y32575
X9144Y32385
X4834Y36830
X3833Y34290
X8553Y2540
X2115Y2540
X5334Y31750
X24309Y1841
X18871Y1841
X23114Y34290
X23114Y36830
X18796Y35560
X20066Y38100
X23114Y38100
X17907Y32575
X25400Y32385
X21090Y36830
X20089Y34290
X24809Y2540
X18371Y2540
X21590Y31750
X40565Y1841
X35127Y1841
X39370Y34290
X39370Y36830
X35052Y35560
X36322Y38100
X39370Y38100
X34163Y32575
X41656Y32385
X37346Y36830
X36345Y34290
X41065Y2540
X34627Y2540
X37846Y31750
X56821Y1841
X51383Y1841
X55626Y34290
X55626Y36830
X51308Y35560
X52578Y38100
X55626Y38100
X50419Y32575
X57912Y32385
X53602Y36830
X52601Y34290
X57321Y2540
X50883Y2540
X54102Y31750
X73077Y1841
X67639Y1841
X71882Y34290
X71882Y36830
X67564Y35560
X68834Y38100
X71882Y38100
X66675Y32575
X74168Y32385
X69858Y36830
X68857Y34290
X73577Y2540
X67139Y2540
X70358Y31750
X89333Y1841
X83895Y1841
X88138Y34290
X88138Y36830
X83820Y35560
X85090Y38100
X88138Y38100
X82931Y32575
X90424Y32385
X86114Y36830
X85113Y34290
X89833Y2540
X83395Y2540
X86614Y31750
X105589Y1841
X100151Y1841
X104394Y34290
X104394Y36830
X100076Y35560
X101346Y38100
X104394Y38100
X99187Y32575
X106680Y32385
X102370Y36830
X101369Y34290
X106089Y2540
X99651Y2540
X102870Y31750
X121845Y1841
X116407Y1841
X120650Y34290
X120650Y36830
X116332Y35560
X117602Y38100
X120650Y38100
X115443Y32575
X122936Y32385
X118626Y36830
X117625Y34290
X122345Y2540
X115907Y2540
X119126Y31750
X132663Y1841
X136906Y34290
X136906Y36830
X132588Y35560
X133858Y38100
X136906Y38100
X131699Y32575
X139192Y32385
X134882Y36830
X133881Y34290
X138601Y2540
X132163Y2540
X135382Y31750
X154357Y1841
X148919Y1841
X153162Y34290
X153162Y36830
X148844Y35560
X150114Y38100
X153162Y38100
X147955Y32575
X155448Y32385
X151138Y36830
X150137Y34290
X154857Y2540
X148419Y2540
X151638Y31750
X8053Y42990
X2615Y42990
X6858Y75438
X6858Y77978
X2540Y76708
X3810Y79248
X6858Y79248
X1651Y73724
X9144Y73533
X4834Y77978
X3833Y75438
X8553Y43688
X2115Y43688
X5334Y72898
X24309Y42990
X18871Y42990
X23114Y75438
X23114Y77978
X18796Y76708
X20066Y79248
X23114Y79248
X17907Y73724
X25400Y73533
X21090Y77978
X20089Y75438
X24809Y43688
X18371Y43688
X21590Y72898
X40565Y42990
X35127Y42990
X39370Y75438
X39370Y77978
X35052Y76708
X36322Y79248
X39370Y79248
X34163Y73724
X41656Y73533
X37346Y77978
X36345Y75438
X41065Y43688
X34627Y43688
X37846Y72898
X56821Y42990
X51383Y42990
X55626Y75438
X55626Y77978
X51308Y76708
X52578Y79248
X55626Y79248
X50419Y73724
X57912Y73533
X53602Y77978
X52601Y75438
X57321Y43688
X50883Y43688
X54102Y72898
X73077Y42990
X67639Y42990
X71882Y75438
X71882Y77978
X67564Y76708
X68834Y79248
X71882Y79248
X66675Y73724
X74168Y73533
X69858Y77978
X68857Y75438
X73577Y43688
X67139Y43688
X70358Y72898
X89333Y42990
X83895Y42990
X88138Y75438
X88138Y77978
X83820Y76708
X85090Y79248
X88138Y79248
X82931Y73724
X90424Y73533
X86114Y77978
X85113Y75438
X89833Y43688
X83395Y43688
X86614Y72898
X105589Y42990
X100151Y42990
X104394Y75438
X104394Y77978
X100076Y76708
X101346Y79248
X104394Y79248
X99187Y73724
X106680Y73533
X102370Y77978
X101369Y75438
X106089Y43688
X99651Y43688
X102870Y72898
X121845Y42990
X116407Y42990
X120650Y75438
X120650Y77978
X116332Y76708
X117602Y79248
X120650Y79248
X115443Y73724
X122936Y73533
X118626Y77978
X117625Y75438
X122345Y43688
X115907Y43688
X119126Y72898
X138101Y42990
X132663Y42990
X136906Y75438
X136906Y77978
X132588Y76708
X133858Y79248
X136906Y79248
X131699Y73724
X139192Y73533
X134882Y77978
X133881Y75438
X138601Y43688
X132163Y43688
X135382Y72898
X154357Y42990
X148919Y42990
X153162Y75438
X153162Y77978
X148844Y76708
X150114Y79248
X153162Y79248
X147955Y73724
X155448Y73533
X151138Y77978
X150137Y75438
X154857Y43688
X148419Y43688
X151638Y72898
X8053Y84138
X2615Y84138
X6858Y116586
X6858Y119126
X2540Y117856
X3810Y120396
X6858Y120396
X1651Y114871
X9144Y114681
X4834Y119126
X3833Y116586
X8553Y84836
X2115Y84836
X5334Y114046
X24309Y84138
X18871Y84138
X23114Y116586
X23114Y119126
X18796Y117856
X20066Y120396
X23114Y120396
X17907Y114871
X25400Y114681
X21090Y119126
X20089Y116586
X24809Y84836
X18371Y84836
X21590Y114046
X40565Y84138
X35127Y84138
X39370Y116586
X39370Y119126
X35052Y117856
X36322Y120396
X39370Y120396
X34163Y114871
X41656Y114681
X37346Y119126
X36345Y116586
X41065Y84836
X34627Y84836
X37846Y114046
X56821Y84138
X51383Y84138
X55626Y116586
X55626Y119126
X51308Y117856
X52578Y120396
X55626Y120396
X50419Y114871
X57912Y114681
X53602Y119126
X52601Y116586
X57321Y84836
X50883Y84836
X54102Y114046
X73077Y84138
X67639Y84138
X71882Y119126
X67564Y117856
X68834Y120396
X71882Y120396
X66675Y114871
X74168Y114681
X69858Y119126
X68857Y116586
X73577Y84836
X67139Y84836
X70358Y114046
X89333Y84138
X83895Y84138
X88138Y116586
X88138Y119126
X83820Y117856
X85090Y120396
X88138Y120396
X82931Y114871
X90424Y114681
X86114Y119126
X85113Y116586
X89833Y84836
X83395Y84836
X86614Y114046
X105589Y84138
X100151Y84138
X104394Y116586
X104394Y119126
X100076Y117856
X101346Y120396
X104394Y120396
X99187Y114871
X106680Y114681
X102370Y119126
X101369Y116586
X106089Y84836
X99651Y84836
X102870Y114046
X121845Y84138
X116407Y84138
X120650Y116586
X120650Y119126
X116332Y117856
X117602Y120396
X120650Y120396
X115443Y114871
X122936Y114681
X118626Y119126
X117625Y116586
X122345Y84836
X115907Y84836
X119126Y114046
X138101Y84138
X132663Y84138
X136906Y116586
X136906Y119126
X132588Y117856
X133858Y120396
X136906Y120396
X131699Y114871
X139192Y114681
X134882Y119126
X133881Y116586
X138601Y84836
X132163Y84836
X135382Y114046
X154357Y84138
X148919Y84138
X153162Y116586
X153162Y119126
X148844Y117856
X150114Y120396
X153162Y120396
X147955Y114871
X155448Y114681
X151138Y119126
X150137Y116586
X154857Y84836
X148419Y84836
X151638Y114046
X71882Y116586
X138101Y1841
M30