G04 EAGLE Gerber RS-274X export*
G75*
%MOMM*%
%FSLAX34Y34*%
%LPD*%
%INSoldermask Bottom*%
%IPPOS*%
%AMOC8*
5,1,8,0,0,1.08239X$1,22.5*%
G01*
%ADD10C,0.762000*%
%ADD11C,2.006600*%
%ADD12C,1.127000*%
%ADD13C,1.270000*%
%ADD14C,1.627000*%


D10*
X6350Y400050D03*
X100330Y6350D03*
D11*
X91440Y127000D03*
X91440Y152400D03*
X91440Y177800D03*
X91440Y203200D03*
X91440Y228600D03*
X91440Y254000D03*
X91440Y279400D03*
X91440Y304800D03*
X15240Y304800D03*
X15240Y279400D03*
X15240Y254000D03*
X15240Y228600D03*
X15240Y203200D03*
X15240Y177800D03*
X15240Y152400D03*
X15240Y127000D03*
D10*
X168910Y400050D03*
X262890Y6350D03*
D11*
X254000Y127000D03*
X254000Y152400D03*
X254000Y177800D03*
X254000Y203200D03*
X254000Y228600D03*
X254000Y254000D03*
X254000Y279400D03*
X254000Y304800D03*
X177800Y304800D03*
X177800Y279400D03*
X177800Y254000D03*
X177800Y228600D03*
X177800Y203200D03*
X177800Y177800D03*
X177800Y152400D03*
X177800Y127000D03*
D10*
X331470Y400050D03*
X425450Y6350D03*
D11*
X416560Y127000D03*
X416560Y152400D03*
X416560Y177800D03*
X416560Y203200D03*
X416560Y228600D03*
X416560Y254000D03*
X416560Y279400D03*
X416560Y304800D03*
X340360Y304800D03*
X340360Y279400D03*
X340360Y254000D03*
X340360Y228600D03*
X340360Y203200D03*
X340360Y177800D03*
X340360Y152400D03*
X340360Y127000D03*
D10*
X494030Y400050D03*
X588010Y6350D03*
D11*
X579120Y127000D03*
X579120Y152400D03*
X579120Y177800D03*
X579120Y203200D03*
X579120Y228600D03*
X579120Y254000D03*
X579120Y279400D03*
X579120Y304800D03*
X502920Y304800D03*
X502920Y279400D03*
X502920Y254000D03*
X502920Y228600D03*
X502920Y203200D03*
X502920Y177800D03*
X502920Y152400D03*
X502920Y127000D03*
D10*
X656590Y400050D03*
X750570Y6350D03*
D11*
X741680Y127000D03*
X741680Y152400D03*
X741680Y177800D03*
X741680Y203200D03*
X741680Y228600D03*
X741680Y254000D03*
X741680Y279400D03*
X741680Y304800D03*
X665480Y304800D03*
X665480Y279400D03*
X665480Y254000D03*
X665480Y228600D03*
X665480Y203200D03*
X665480Y177800D03*
X665480Y152400D03*
X665480Y127000D03*
D10*
X819150Y400050D03*
X913130Y6350D03*
D11*
X904240Y127000D03*
X904240Y152400D03*
X904240Y177800D03*
X904240Y203200D03*
X904240Y228600D03*
X904240Y254000D03*
X904240Y279400D03*
X904240Y304800D03*
X828040Y304800D03*
X828040Y279400D03*
X828040Y254000D03*
X828040Y228600D03*
X828040Y203200D03*
X828040Y177800D03*
X828040Y152400D03*
X828040Y127000D03*
D10*
X981710Y400050D03*
X1075690Y6350D03*
D11*
X1066800Y127000D03*
X1066800Y152400D03*
X1066800Y177800D03*
X1066800Y203200D03*
X1066800Y228600D03*
X1066800Y254000D03*
X1066800Y279400D03*
X1066800Y304800D03*
X990600Y304800D03*
X990600Y279400D03*
X990600Y254000D03*
X990600Y228600D03*
X990600Y203200D03*
X990600Y177800D03*
X990600Y152400D03*
X990600Y127000D03*
D10*
X1144270Y400050D03*
X1238250Y6350D03*
D11*
X1229360Y127000D03*
X1229360Y152400D03*
X1229360Y177800D03*
X1229360Y203200D03*
X1229360Y228600D03*
X1229360Y254000D03*
X1229360Y279400D03*
X1229360Y304800D03*
X1153160Y304800D03*
X1153160Y279400D03*
X1153160Y254000D03*
X1153160Y228600D03*
X1153160Y203200D03*
X1153160Y177800D03*
X1153160Y152400D03*
X1153160Y127000D03*
D10*
X1306830Y400050D03*
X1400810Y6350D03*
D11*
X1391920Y127000D03*
X1391920Y152400D03*
X1391920Y177800D03*
X1391920Y203200D03*
X1391920Y228600D03*
X1391920Y254000D03*
X1391920Y279400D03*
X1391920Y304800D03*
X1315720Y304800D03*
X1315720Y279400D03*
X1315720Y254000D03*
X1315720Y228600D03*
X1315720Y203200D03*
X1315720Y177800D03*
X1315720Y152400D03*
X1315720Y127000D03*
D10*
X1469390Y400050D03*
X1563370Y6350D03*
D11*
X1554480Y127000D03*
X1554480Y152400D03*
X1554480Y177800D03*
X1554480Y203200D03*
X1554480Y228600D03*
X1554480Y254000D03*
X1554480Y279400D03*
X1554480Y304800D03*
X1478280Y304800D03*
X1478280Y279400D03*
X1478280Y254000D03*
X1478280Y228600D03*
X1478280Y203200D03*
X1478280Y177800D03*
X1478280Y152400D03*
X1478280Y127000D03*
D10*
X6350Y811530D03*
X100330Y417830D03*
D11*
X91440Y538480D03*
X91440Y563880D03*
X91440Y589280D03*
X91440Y614680D03*
X91440Y640080D03*
X91440Y665480D03*
X91440Y690880D03*
X91440Y716280D03*
X15240Y716280D03*
X15240Y690880D03*
X15240Y665480D03*
X15240Y640080D03*
X15240Y614680D03*
X15240Y589280D03*
X15240Y563880D03*
X15240Y538480D03*
D10*
X168910Y811530D03*
X262890Y417830D03*
D11*
X254000Y538480D03*
X254000Y563880D03*
X254000Y589280D03*
X254000Y614680D03*
X254000Y640080D03*
X254000Y665480D03*
X254000Y690880D03*
X254000Y716280D03*
X177800Y716280D03*
X177800Y690880D03*
X177800Y665480D03*
X177800Y640080D03*
X177800Y614680D03*
X177800Y589280D03*
X177800Y563880D03*
X177800Y538480D03*
D10*
X331470Y811530D03*
X425450Y417830D03*
D11*
X416560Y538480D03*
X416560Y563880D03*
X416560Y589280D03*
X416560Y614680D03*
X416560Y640080D03*
X416560Y665480D03*
X416560Y690880D03*
X416560Y716280D03*
X340360Y716280D03*
X340360Y690880D03*
X340360Y665480D03*
X340360Y640080D03*
X340360Y614680D03*
X340360Y589280D03*
X340360Y563880D03*
X340360Y538480D03*
D10*
X494030Y811530D03*
X588010Y417830D03*
D11*
X579120Y538480D03*
X579120Y563880D03*
X579120Y589280D03*
X579120Y614680D03*
X579120Y640080D03*
X579120Y665480D03*
X579120Y690880D03*
X579120Y716280D03*
X502920Y716280D03*
X502920Y690880D03*
X502920Y665480D03*
X502920Y640080D03*
X502920Y614680D03*
X502920Y589280D03*
X502920Y563880D03*
X502920Y538480D03*
D10*
X656590Y811530D03*
X750570Y417830D03*
D11*
X741680Y538480D03*
X741680Y563880D03*
X741680Y589280D03*
X741680Y614680D03*
X741680Y640080D03*
X741680Y665480D03*
X741680Y690880D03*
X741680Y716280D03*
X665480Y716280D03*
X665480Y690880D03*
X665480Y665480D03*
X665480Y640080D03*
X665480Y614680D03*
X665480Y589280D03*
X665480Y563880D03*
X665480Y538480D03*
D10*
X819150Y811530D03*
X913130Y417830D03*
D11*
X904240Y538480D03*
X904240Y563880D03*
X904240Y589280D03*
X904240Y614680D03*
X904240Y640080D03*
X904240Y665480D03*
X904240Y690880D03*
X904240Y716280D03*
X828040Y716280D03*
X828040Y690880D03*
X828040Y665480D03*
X828040Y640080D03*
X828040Y614680D03*
X828040Y589280D03*
X828040Y563880D03*
X828040Y538480D03*
D10*
X981710Y811530D03*
X1075690Y417830D03*
D11*
X1066800Y538480D03*
X1066800Y563880D03*
X1066800Y589280D03*
X1066800Y614680D03*
X1066800Y640080D03*
X1066800Y665480D03*
X1066800Y690880D03*
X1066800Y716280D03*
X990600Y716280D03*
X990600Y690880D03*
X990600Y665480D03*
X990600Y640080D03*
X990600Y614680D03*
X990600Y589280D03*
X990600Y563880D03*
X990600Y538480D03*
D10*
X1144270Y811530D03*
X1238250Y417830D03*
D11*
X1229360Y538480D03*
X1229360Y563880D03*
X1229360Y589280D03*
X1229360Y614680D03*
X1229360Y640080D03*
X1229360Y665480D03*
X1229360Y690880D03*
X1229360Y716280D03*
X1153160Y716280D03*
X1153160Y690880D03*
X1153160Y665480D03*
X1153160Y640080D03*
X1153160Y614680D03*
X1153160Y589280D03*
X1153160Y563880D03*
X1153160Y538480D03*
D10*
X1306830Y811530D03*
X1400810Y417830D03*
D11*
X1391920Y538480D03*
X1391920Y563880D03*
X1391920Y589280D03*
X1391920Y614680D03*
X1391920Y640080D03*
X1391920Y665480D03*
X1391920Y690880D03*
X1391920Y716280D03*
X1315720Y716280D03*
X1315720Y690880D03*
X1315720Y665480D03*
X1315720Y640080D03*
X1315720Y614680D03*
X1315720Y589280D03*
X1315720Y563880D03*
X1315720Y538480D03*
D10*
X1469390Y811530D03*
X1563370Y417830D03*
D11*
X1554480Y538480D03*
X1554480Y563880D03*
X1554480Y589280D03*
X1554480Y614680D03*
X1554480Y640080D03*
X1554480Y665480D03*
X1554480Y690880D03*
X1554480Y716280D03*
X1478280Y716280D03*
X1478280Y690880D03*
X1478280Y665480D03*
X1478280Y640080D03*
X1478280Y614680D03*
X1478280Y589280D03*
X1478280Y563880D03*
X1478280Y538480D03*
D10*
X6350Y1223010D03*
X100330Y829310D03*
D11*
X91440Y949960D03*
X91440Y975360D03*
X91440Y1000760D03*
X91440Y1026160D03*
X91440Y1051560D03*
X91440Y1076960D03*
X91440Y1102360D03*
X91440Y1127760D03*
X15240Y1127760D03*
X15240Y1102360D03*
X15240Y1076960D03*
X15240Y1051560D03*
X15240Y1026160D03*
X15240Y1000760D03*
X15240Y975360D03*
X15240Y949960D03*
D10*
X168910Y1223010D03*
X262890Y829310D03*
D11*
X254000Y949960D03*
X254000Y975360D03*
X254000Y1000760D03*
X254000Y1026160D03*
X254000Y1051560D03*
X254000Y1076960D03*
X254000Y1102360D03*
X254000Y1127760D03*
X177800Y1127760D03*
X177800Y1102360D03*
X177800Y1076960D03*
X177800Y1051560D03*
X177800Y1026160D03*
X177800Y1000760D03*
X177800Y975360D03*
X177800Y949960D03*
D10*
X331470Y1223010D03*
X425450Y829310D03*
D11*
X416560Y949960D03*
X416560Y975360D03*
X416560Y1000760D03*
X416560Y1026160D03*
X416560Y1051560D03*
X416560Y1076960D03*
X416560Y1102360D03*
X416560Y1127760D03*
X340360Y1127760D03*
X340360Y1102360D03*
X340360Y1076960D03*
X340360Y1051560D03*
X340360Y1026160D03*
X340360Y1000760D03*
X340360Y975360D03*
X340360Y949960D03*
D10*
X494030Y1223010D03*
X588010Y829310D03*
D11*
X579120Y949960D03*
X579120Y975360D03*
X579120Y1000760D03*
X579120Y1026160D03*
X579120Y1051560D03*
X579120Y1076960D03*
X579120Y1102360D03*
X579120Y1127760D03*
X502920Y1127760D03*
X502920Y1102360D03*
X502920Y1076960D03*
X502920Y1051560D03*
X502920Y1026160D03*
X502920Y1000760D03*
X502920Y975360D03*
X502920Y949960D03*
D10*
X656590Y1223010D03*
X750570Y829310D03*
D11*
X741680Y949960D03*
X741680Y975360D03*
X741680Y1000760D03*
X741680Y1026160D03*
X741680Y1051560D03*
X741680Y1076960D03*
X741680Y1102360D03*
X741680Y1127760D03*
X665480Y1127760D03*
X665480Y1102360D03*
X665480Y1076960D03*
X665480Y1051560D03*
X665480Y1026160D03*
X665480Y1000760D03*
X665480Y975360D03*
X665480Y949960D03*
D10*
X819150Y1223010D03*
X913130Y829310D03*
D11*
X904240Y949960D03*
X904240Y975360D03*
X904240Y1000760D03*
X904240Y1026160D03*
X904240Y1051560D03*
X904240Y1076960D03*
X904240Y1102360D03*
X904240Y1127760D03*
X828040Y1127760D03*
X828040Y1102360D03*
X828040Y1076960D03*
X828040Y1051560D03*
X828040Y1026160D03*
X828040Y1000760D03*
X828040Y975360D03*
X828040Y949960D03*
D10*
X981710Y1223010D03*
X1075690Y829310D03*
D11*
X1066800Y949960D03*
X1066800Y975360D03*
X1066800Y1000760D03*
X1066800Y1026160D03*
X1066800Y1051560D03*
X1066800Y1076960D03*
X1066800Y1102360D03*
X1066800Y1127760D03*
X990600Y1127760D03*
X990600Y1102360D03*
X990600Y1076960D03*
X990600Y1051560D03*
X990600Y1026160D03*
X990600Y1000760D03*
X990600Y975360D03*
X990600Y949960D03*
D10*
X1144270Y1223010D03*
X1238250Y829310D03*
D11*
X1229360Y949960D03*
X1229360Y975360D03*
X1229360Y1000760D03*
X1229360Y1026160D03*
X1229360Y1051560D03*
X1229360Y1076960D03*
X1229360Y1102360D03*
X1229360Y1127760D03*
X1153160Y1127760D03*
X1153160Y1102360D03*
X1153160Y1076960D03*
X1153160Y1051560D03*
X1153160Y1026160D03*
X1153160Y1000760D03*
X1153160Y975360D03*
X1153160Y949960D03*
D10*
X1306830Y1223010D03*
X1400810Y829310D03*
D11*
X1391920Y949960D03*
X1391920Y975360D03*
X1391920Y1000760D03*
X1391920Y1026160D03*
X1391920Y1051560D03*
X1391920Y1076960D03*
X1391920Y1102360D03*
X1391920Y1127760D03*
X1315720Y1127760D03*
X1315720Y1102360D03*
X1315720Y1076960D03*
X1315720Y1051560D03*
X1315720Y1026160D03*
X1315720Y1000760D03*
X1315720Y975360D03*
X1315720Y949960D03*
D10*
X1469390Y1223010D03*
X1563370Y829310D03*
D11*
X1554480Y949960D03*
X1554480Y975360D03*
X1554480Y1000760D03*
X1554480Y1026160D03*
X1554480Y1051560D03*
X1554480Y1076960D03*
X1554480Y1102360D03*
X1554480Y1127760D03*
X1478280Y1127760D03*
X1478280Y1102360D03*
X1478280Y1076960D03*
X1478280Y1051560D03*
X1478280Y1026160D03*
X1478280Y1000760D03*
X1478280Y975360D03*
X1478280Y949960D03*
D12*
X119380Y1250315D03*
X1602105Y1250315D03*
D13*
X110325Y-20955D02*
X110328Y-20733D01*
X110336Y-20511D01*
X110350Y-20289D01*
X110369Y-20067D01*
X110393Y-19847D01*
X110423Y-19626D01*
X110458Y-19407D01*
X110499Y-19188D01*
X110545Y-18971D01*
X110596Y-18755D01*
X110653Y-18540D01*
X110715Y-18326D01*
X110782Y-18115D01*
X110854Y-17904D01*
X110932Y-17696D01*
X111014Y-17490D01*
X111102Y-17286D01*
X111194Y-17083D01*
X111292Y-16884D01*
X111394Y-16687D01*
X111501Y-16492D01*
X111613Y-16300D01*
X111730Y-16111D01*
X111851Y-15924D01*
X111977Y-15741D01*
X112107Y-15561D01*
X112242Y-15384D01*
X112380Y-15211D01*
X112523Y-15041D01*
X112671Y-14874D01*
X112822Y-14711D01*
X112977Y-14552D01*
X113136Y-14397D01*
X113299Y-14246D01*
X113466Y-14098D01*
X113636Y-13955D01*
X113809Y-13817D01*
X113986Y-13682D01*
X114166Y-13552D01*
X114349Y-13426D01*
X114536Y-13305D01*
X114725Y-13188D01*
X114917Y-13076D01*
X115112Y-12969D01*
X115309Y-12867D01*
X115508Y-12769D01*
X115711Y-12677D01*
X115915Y-12589D01*
X116121Y-12507D01*
X116329Y-12429D01*
X116540Y-12357D01*
X116751Y-12290D01*
X116965Y-12228D01*
X117180Y-12171D01*
X117396Y-12120D01*
X117613Y-12074D01*
X117832Y-12033D01*
X118051Y-11998D01*
X118272Y-11968D01*
X118492Y-11944D01*
X118714Y-11925D01*
X118936Y-11911D01*
X119158Y-11903D01*
X119380Y-11900D01*
X119602Y-11903D01*
X119824Y-11911D01*
X120046Y-11925D01*
X120268Y-11944D01*
X120488Y-11968D01*
X120709Y-11998D01*
X120928Y-12033D01*
X121147Y-12074D01*
X121364Y-12120D01*
X121580Y-12171D01*
X121795Y-12228D01*
X122009Y-12290D01*
X122220Y-12357D01*
X122431Y-12429D01*
X122639Y-12507D01*
X122845Y-12589D01*
X123049Y-12677D01*
X123252Y-12769D01*
X123451Y-12867D01*
X123648Y-12969D01*
X123843Y-13076D01*
X124035Y-13188D01*
X124224Y-13305D01*
X124411Y-13426D01*
X124594Y-13552D01*
X124774Y-13682D01*
X124951Y-13817D01*
X125124Y-13955D01*
X125294Y-14098D01*
X125461Y-14246D01*
X125624Y-14397D01*
X125783Y-14552D01*
X125938Y-14711D01*
X126089Y-14874D01*
X126237Y-15041D01*
X126380Y-15211D01*
X126518Y-15384D01*
X126653Y-15561D01*
X126783Y-15741D01*
X126909Y-15924D01*
X127030Y-16111D01*
X127147Y-16300D01*
X127259Y-16492D01*
X127366Y-16687D01*
X127468Y-16884D01*
X127566Y-17083D01*
X127658Y-17286D01*
X127746Y-17490D01*
X127828Y-17696D01*
X127906Y-17904D01*
X127978Y-18115D01*
X128045Y-18326D01*
X128107Y-18540D01*
X128164Y-18755D01*
X128215Y-18971D01*
X128261Y-19188D01*
X128302Y-19407D01*
X128337Y-19626D01*
X128367Y-19847D01*
X128391Y-20067D01*
X128410Y-20289D01*
X128424Y-20511D01*
X128432Y-20733D01*
X128435Y-20955D01*
X128432Y-21177D01*
X128424Y-21399D01*
X128410Y-21621D01*
X128391Y-21843D01*
X128367Y-22063D01*
X128337Y-22284D01*
X128302Y-22503D01*
X128261Y-22722D01*
X128215Y-22939D01*
X128164Y-23155D01*
X128107Y-23370D01*
X128045Y-23584D01*
X127978Y-23795D01*
X127906Y-24006D01*
X127828Y-24214D01*
X127746Y-24420D01*
X127658Y-24624D01*
X127566Y-24827D01*
X127468Y-25026D01*
X127366Y-25223D01*
X127259Y-25418D01*
X127147Y-25610D01*
X127030Y-25799D01*
X126909Y-25986D01*
X126783Y-26169D01*
X126653Y-26349D01*
X126518Y-26526D01*
X126380Y-26699D01*
X126237Y-26869D01*
X126089Y-27036D01*
X125938Y-27199D01*
X125783Y-27358D01*
X125624Y-27513D01*
X125461Y-27664D01*
X125294Y-27812D01*
X125124Y-27955D01*
X124951Y-28093D01*
X124774Y-28228D01*
X124594Y-28358D01*
X124411Y-28484D01*
X124224Y-28605D01*
X124035Y-28722D01*
X123843Y-28834D01*
X123648Y-28941D01*
X123451Y-29043D01*
X123252Y-29141D01*
X123049Y-29233D01*
X122845Y-29321D01*
X122639Y-29403D01*
X122431Y-29481D01*
X122220Y-29553D01*
X122009Y-29620D01*
X121795Y-29682D01*
X121580Y-29739D01*
X121364Y-29790D01*
X121147Y-29836D01*
X120928Y-29877D01*
X120709Y-29912D01*
X120488Y-29942D01*
X120268Y-29966D01*
X120046Y-29985D01*
X119824Y-29999D01*
X119602Y-30007D01*
X119380Y-30010D01*
X119158Y-30007D01*
X118936Y-29999D01*
X118714Y-29985D01*
X118492Y-29966D01*
X118272Y-29942D01*
X118051Y-29912D01*
X117832Y-29877D01*
X117613Y-29836D01*
X117396Y-29790D01*
X117180Y-29739D01*
X116965Y-29682D01*
X116751Y-29620D01*
X116540Y-29553D01*
X116329Y-29481D01*
X116121Y-29403D01*
X115915Y-29321D01*
X115711Y-29233D01*
X115508Y-29141D01*
X115309Y-29043D01*
X115112Y-28941D01*
X114917Y-28834D01*
X114725Y-28722D01*
X114536Y-28605D01*
X114349Y-28484D01*
X114166Y-28358D01*
X113986Y-28228D01*
X113809Y-28093D01*
X113636Y-27955D01*
X113466Y-27812D01*
X113299Y-27664D01*
X113136Y-27513D01*
X112977Y-27358D01*
X112822Y-27199D01*
X112671Y-27036D01*
X112523Y-26869D01*
X112380Y-26699D01*
X112242Y-26526D01*
X112107Y-26349D01*
X111977Y-26169D01*
X111851Y-25986D01*
X111730Y-25799D01*
X111613Y-25610D01*
X111501Y-25418D01*
X111394Y-25223D01*
X111292Y-25026D01*
X111194Y-24827D01*
X111102Y-24624D01*
X111014Y-24420D01*
X110932Y-24214D01*
X110854Y-24006D01*
X110782Y-23795D01*
X110715Y-23584D01*
X110653Y-23370D01*
X110596Y-23155D01*
X110545Y-22939D01*
X110499Y-22722D01*
X110458Y-22503D01*
X110423Y-22284D01*
X110393Y-22063D01*
X110369Y-21843D01*
X110350Y-21621D01*
X110336Y-21399D01*
X110328Y-21177D01*
X110325Y-20955D01*
D14*
X119380Y-20955D03*
M02*
