M48
;GenerationSoftware,Autodesk,EAGLE,9.6.2*%
;CreationDate,2021-08-18T14:14:03Z*%
FMAT,2
ICI,OFF
METRIC,TZ,000.000
T2C0.300
T1C1.016
%
G90
M71
T1
X76200Y12700
X76200Y15240
X76200Y17780
X76200Y20320
X76200Y22860
X76200Y25400
X76200Y27940
X76200Y30480
X68580Y30480
X68580Y27940
X68580Y25400
X68580Y22860
X68580Y20320
X68580Y17780
X68580Y15240
X68580Y12700
X87376Y12700
X87376Y15240
X87376Y17780
X87376Y20320
X87376Y22860
X87376Y25400
X87376Y27940
X87376Y30480
X79756Y30480
X79756Y27940
X79756Y25400
X79756Y22860
X79756Y20320
X79756Y17780
X79756Y15240
X79756Y12700
X98552Y12700
X98552Y15240
X98552Y17780
X98552Y20320
X98552Y22860
X98552Y25400
X98552Y27940
X98552Y30480
X90932Y30480
X90932Y27940
X90932Y25400
X90932Y22860
X90932Y20320
X90932Y17780
X90932Y15240
X90932Y12700
X109728Y12700
X109728Y15240
X109728Y17780
X109728Y20320
X109728Y22860
X109728Y25400
X109728Y27940
X109728Y30480
X102108Y30480
X102108Y27940
X102108Y25400
X102108Y22860
X102108Y20320
X102108Y17780
X102108Y15240
X102108Y12700
X120904Y12700
X120904Y15240
X120904Y17780
X120904Y20320
X120904Y22860
X120904Y25400
X120904Y27940
X120904Y30480
X113284Y30480
X113284Y27940
X113284Y25400
X113284Y22860
X113284Y20320
X113284Y17780
X113284Y15240
X113284Y12700
X132080Y12700
X132080Y15240
X132080Y17780
X132080Y20320
X132080Y22860
X132080Y25400
X132080Y27940
X132080Y30480
X124460Y30480
X124460Y27940
X124460Y25400
X124460Y22860
X124460Y20320
X124460Y17780
X124460Y15240
X124460Y12700
X143256Y12700
X143256Y15240
X143256Y17780
X143256Y20320
X143256Y22860
X143256Y25400
X143256Y27940
X143256Y30480
X135636Y30480
X135636Y27940
X135636Y25400
X135636Y22860
X135636Y20320
X135636Y17780
X135636Y15240
X135636Y12700
X154432Y12700
X154432Y15240
X154432Y17780
X154432Y20320
X154432Y22860
X154432Y25400
X154432Y27940
X154432Y30480
X146812Y30480
X146812Y27940
X146812Y25400
X146812Y22860
X146812Y20320
X146812Y17780
X146812Y15240
X146812Y12700
X165608Y12700
X165608Y15240
X165608Y17780
X165608Y20320
X165608Y25400
X165608Y27940
X165608Y30480
X157988Y30480
X157988Y27940
X157988Y25400
X157988Y22860
X157988Y20320
X157988Y17780
X157988Y15240
X157988Y12700
X176784Y12700
X176784Y15240
X176784Y17780
X176784Y20320
X176784Y22860
X176784Y25400
X176784Y27940
X176784Y30480
X169164Y30480
X169164Y27940
X169164Y25400
X169164Y22860
X169164Y20320
X169164Y17780
X169164Y15240
X169164Y12700
X9144Y53848
X9144Y56388
X9144Y58928
X9144Y61468
X9144Y64008
X9144Y66548
X9144Y69088
X9144Y71628
X1524Y71628
X1524Y69088
X1524Y66548
X1524Y64008
X1524Y61468
X1524Y58928
X1524Y56388
X1524Y53848
X20320Y53848
X20320Y56388
X20320Y58928
X20320Y61468
X20320Y64008
X165608Y22860
X20320Y66548
X20320Y69088
X20320Y71628
X12700Y71628
X12700Y69088
X12700Y66548
X12700Y64008
X12700Y61468
X12700Y58928
X12700Y56388
X12700Y53848
X31496Y53848
X31496Y56388
X31496Y58928
X31496Y61468
X31496Y64008
X31496Y66548
X31496Y69088
X31496Y71628
X23876Y71628
X23876Y69088
X23876Y66548
X23876Y64008
X23876Y61468
X23876Y58928
X23876Y56388
X23876Y53848
X42672Y53848
X42672Y56388
X42672Y58928
X42672Y61468
X42672Y64008
X42672Y66548
X42672Y69088
X42672Y71628
X35052Y71628
X35052Y69088
X35052Y66548
X35052Y64008
X35052Y61468
X35052Y58928
X35052Y56388
X35052Y53848
X53848Y53848
X53848Y56388
X53848Y58928
X53848Y61468
X53848Y64008
X53848Y66548
X53848Y69088
X53848Y71628
X46228Y71628
X46228Y69088
X46228Y66548
X46228Y64008
X46228Y61468
X46228Y58928
X46228Y56388
X46228Y53848
X65024Y53848
X65024Y56388
X65024Y58928
X65024Y61468
X65024Y64008
X65024Y66548
X65024Y69088
X65024Y71628
X57404Y71628
X57404Y69088
X57404Y66548
X57404Y64008
X57404Y61468
X57404Y58928
X57404Y56388
X57404Y53848
X76200Y53848
X76200Y56388
X76200Y58928
X76200Y61468
X76200Y64008
X76200Y66548
X76200Y69088
X76200Y71628
X68580Y71628
X68580Y69088
X68580Y66548
X68580Y64008
X68580Y61468
X68580Y58928
X68580Y56388
X68580Y53848
X87376Y53848
X87376Y56388
X87376Y58928
X87376Y61468
X87376Y64008
X87376Y66548
X87376Y69088
X87376Y71628
X79756Y71628
X79756Y69088
X79756Y66548
X79756Y64008
X79756Y61468
X79756Y58928
X79756Y56388
X79756Y53848
X98552Y53848
X98552Y56388
X98552Y58928
X98552Y61468
X98552Y64008
X98552Y66548
X98552Y69088
X98552Y71628
X90932Y71628
X90932Y69088
X90932Y66548
X90932Y64008
X90932Y61468
X90932Y58928
X90932Y56388
X90932Y53848
X109728Y53848
X109728Y56388
X109728Y58928
X109728Y61468
X109728Y64008
X109728Y66548
X109728Y69088
X109728Y71628
X102108Y71628
X102108Y69088
X102108Y66548
X102108Y64008
X102108Y61468
X102108Y58928
X102108Y56388
X102108Y53848
X120904Y53848
X120904Y56388
X120904Y58928
X120904Y61468
X120904Y64008
X120904Y66548
X120904Y69088
X120904Y71628
X113284Y71628
X113284Y69088
X113284Y66548
X113284Y64008
X113284Y61468
X113284Y58928
X113284Y56388
X113284Y53848
X132080Y53848
X132080Y56388
X132080Y58928
X132080Y61468
X132080Y64008
X132080Y66548
X132080Y69088
X132080Y71628
X124460Y71628
X124460Y69088
X124460Y66548
X124460Y64008
X124460Y61468
X124460Y58928
X124460Y56388
X124460Y53848
X143256Y53848
X143256Y56388
X143256Y58928
X143256Y61468
X143256Y64008
X143256Y66548
X143256Y69088
X143256Y71628
X135636Y71628
X135636Y69088
X135636Y66548
X135636Y64008
X135636Y61468
X135636Y58928
X135636Y56388
X135636Y53848
X154432Y53848
X154432Y56388
X154432Y58928
X154432Y61468
X154432Y64008
X154432Y66548
X154432Y69088
X154432Y71628
X146812Y71628
X146812Y69088
X146812Y66548
X146812Y64008
X146812Y61468
X146812Y58928
X146812Y56388
X146812Y53848
X165608Y53848
X165608Y56388
X165608Y58928
X165608Y61468
X165608Y64008
X165608Y66548
X165608Y69088
X165608Y71628
X157988Y71628
X157988Y69088
X157988Y66548
X157988Y64008
X157988Y61468
X157988Y58928
X157988Y56388
X157988Y53848
X176784Y53848
X176784Y56388
X176784Y58928
X176784Y61468
X176784Y64008
X176784Y66548
X176784Y69088
X176784Y71628
X169164Y71628
X169164Y69088
X169164Y66548
X169164Y64008
X169164Y61468
X169164Y58928
X169164Y56388
X169164Y53848
X9144Y94996
X9144Y97536
X9144Y100076
X9144Y102616
X9144Y105156
X9144Y107696
X9144Y110236
X9144Y112776
X1524Y112776
X1524Y110236
X1524Y107696
X1524Y105156
X1524Y102616
X1524Y100076
X1524Y97536
X1524Y94996
X20320Y94996
X20320Y97536
X20320Y100076
X20320Y102616
X20320Y105156
X20320Y107696
X20320Y110236
X20320Y112776
X12700Y112776
X12700Y110236
X12700Y107696
X12700Y105156
X12700Y102616
X12700Y100076
X12700Y97536
X12700Y94996
X31496Y94996
X31496Y97536
X31496Y100076
X31496Y102616
X31496Y105156
X31496Y107696
X31496Y110236
X31496Y112776
X23876Y112776
X23876Y110236
X23876Y107696
X23876Y105156
X23876Y102616
X23876Y100076
X23876Y97536
X23876Y94996
X42672Y94996
X42672Y97536
X42672Y100076
X42672Y102616
X42672Y105156
X42672Y107696
X42672Y110236
X42672Y112776
X35052Y112776
X35052Y110236
X35052Y107696
X35052Y105156
X35052Y102616
X35052Y100076
X35052Y97536
X35052Y94996
X53848Y94996
X53848Y97536
X53848Y100076
X53848Y102616
X53848Y105156
X53848Y107696
X53848Y110236
X53848Y112776
X46228Y112776
X46228Y110236
X46228Y107696
X46228Y102616
X46228Y100076
X46228Y97536
X46228Y94996
X65024Y94996
X65024Y97536
X65024Y100076
X65024Y102616
X65024Y105156
X65024Y107696
X65024Y110236
X65024Y112776
X57404Y112776
X57404Y110236
X57404Y107696
X57404Y105156
X57404Y102616
X57404Y100076
X57404Y97536
X57404Y94996
X76200Y94996
X76200Y97536
X76200Y100076
X76200Y102616
X76200Y105156
X76200Y107696
X76200Y110236
X76200Y112776
X68580Y112776
X68580Y110236
X68580Y107696
X68580Y105156
X68580Y102616
X68580Y100076
X68580Y97536
X68580Y94996
X87376Y94996
X87376Y97536
X87376Y100076
X87376Y102616
X87376Y105156
X87376Y107696
X87376Y110236
X87376Y112776
X79756Y112776
X79756Y110236
X79756Y107696
X79756Y105156
X79756Y102616
X42672Y12700
X79756Y100076
X79756Y97536
X79756Y94996
X98552Y94996
X98552Y97536
X98552Y100076
X98552Y102616
X98552Y105156
X98552Y107696
X98552Y110236
X98552Y112776
X90932Y112776
X90932Y110236
X90932Y107696
X90932Y105156
X90932Y102616
X90932Y100076
X90932Y97536
X90932Y94996
X109728Y94996
X109728Y97536
X109728Y100076
X109728Y102616
X109728Y105156
X109728Y107696
X109728Y110236
X109728Y112776
X102108Y112776
X102108Y110236
X102108Y107696
X102108Y105156
X102108Y102616
X102108Y100076
X102108Y97536
X102108Y94996
X120904Y94996
X120904Y97536
X120904Y100076
X120904Y102616
X120904Y105156
X120904Y107696
X120904Y110236
X120904Y112776
X113284Y112776
X113284Y110236
X113284Y107696
X113284Y105156
X113284Y102616
X113284Y100076
X113284Y97536
X113284Y94996
X132080Y94996
X132080Y97536
X132080Y100076
X132080Y102616
X132080Y105156
X132080Y107696
X132080Y110236
X132080Y112776
X124460Y112776
X124460Y110236
X124460Y107696
X124460Y105156
X124460Y102616
X124460Y100076
X124460Y97536
X124460Y94996
X143256Y94996
X143256Y97536
X143256Y100076
X143256Y102616
X143256Y105156
X143256Y107696
X143256Y110236
X143256Y112776
X135636Y112776
X135636Y110236
X135636Y107696
X135636Y105156
X135636Y102616
X135636Y100076
X135636Y97536
X135636Y94996
X154432Y94996
X154432Y97536
X154432Y100076
X154432Y102616
X154432Y105156
X154432Y107696
X154432Y110236
X154432Y112776
X146812Y112776
X146812Y110236
X146812Y107696
X146812Y105156
X146812Y102616
X146812Y100076
X146812Y97536
X146812Y94996
X165608Y94996
X165608Y97536
X165608Y100076
X165608Y102616
X165608Y105156
X165608Y107696
X165608Y110236
X165608Y112776
X157988Y112776
X157988Y110236
X157988Y107696
X157988Y105156
X157988Y102616
X157988Y100076
X157988Y97536
X157988Y94996
X176784Y94996
X176784Y97536
X176784Y100076
X176784Y102616
X176784Y105156
X176784Y107696
X176784Y110236
X176784Y112776
X169164Y112776
X169164Y110236
X169164Y107696
X169164Y105156
X169164Y102616
X169164Y100076
X169164Y97536
X169164Y94996
X9144Y12700
X9144Y15240
X9144Y17780
X9144Y20320
X9144Y22860
X9144Y25400
X9144Y27940
X9144Y30480
X1524Y30480
X1524Y27940
X1524Y25400
X1524Y22860
X1524Y20320
X1524Y17780
X1524Y15240
X1524Y12700
X20320Y12700
X20320Y15240
X20320Y17780
X20320Y20320
X20320Y22860
X20320Y25400
X20320Y27940
X20320Y30480
X12700Y30480
X12700Y27940
X12700Y25400
X12700Y22860
X12700Y20320
X12700Y17780
X12700Y15240
X12700Y12700
X31496Y12700
X31496Y15240
X31496Y17780
X31496Y20320
X31496Y22860
X31496Y25400
X31496Y27940
X31496Y30480
X23876Y30480
X23876Y27940
X23876Y25400
X23876Y22860
X23876Y20320
X23876Y17780
X23876Y15240
X23876Y12700
X46228Y105156
X42672Y15240
X42672Y17780
X42672Y20320
X42672Y22860
X42672Y25400
X42672Y27940
X42672Y30480
X35052Y30480
X35052Y27940
X35052Y25400
X35052Y22860
X35052Y20320
X35052Y17780
X35052Y15240
X35052Y12700
X53848Y12700
X53848Y15240
X53848Y17780
X53848Y20320
X53848Y22860
X53848Y25400
X53848Y27940
X53848Y30480
X46228Y30480
X46228Y27940
X46228Y25400
X46228Y22860
X46228Y20320
X46228Y17780
X46228Y15240
X46228Y12700
X65024Y12700
X65024Y15240
X65024Y17780
X65024Y20320
X65024Y22860
X65024Y25400
X65024Y27940
X65024Y30480
X57404Y30480
X57404Y27940
X57404Y25400
X57404Y22860
X57404Y20320
X57404Y17780
X57404Y15240
X57404Y12700
T2
X8053Y1841
X2615Y1841
X6858Y34290
X6858Y36830
X2540Y35560
X3810Y38100
X6858Y38100
X1651Y32575
X9144Y32385
X4834Y36830
X3833Y34290
X8553Y2540
X2115Y2540
X5334Y31750
X19229Y1841
X13791Y1841
X18034Y34290
X18034Y36830
X13716Y35560
X14986Y38100
X18034Y38100
X12827Y32575
X20320Y32385
X16010Y36830
X15009Y34290
X19729Y2540
X13291Y2540
X16510Y31750
X30405Y1841
X24967Y1841
X29210Y34290
X29210Y36830
X24892Y35560
X26162Y38100
X29210Y38100
X24003Y32575
X31496Y32385
X27186Y36830
X26185Y34290
X30905Y2540
X24467Y2540
X27686Y31750
X41581Y1841
X36143Y1841
X40386Y34290
X40386Y36830
X36068Y35560
X37338Y38100
X40386Y38100
X35179Y32575
X42672Y32385
X38362Y36830
X37361Y34290
X42081Y2540
X35643Y2540
X38862Y31750
X52757Y1841
X47319Y1841
X51562Y34290
X51562Y36830
X47244Y35560
X48514Y38100
X51562Y38100
X46355Y32575
X53848Y32385
X49538Y36830
X48537Y34290
X53257Y2540
X46819Y2540
X50038Y31750
X63933Y1841
X58495Y1841
X62738Y34290
X62738Y36830
X58420Y35560
X59690Y38100
X62738Y38100
X57531Y32575
X65024Y32385
X60714Y36830
X59713Y34290
X64433Y2540
X57995Y2540
X61214Y31750
X75109Y1841
X69671Y1841
X73914Y34290
X73914Y36830
X69596Y35560
X70866Y38100
X73914Y38100
X68707Y32575
X76200Y32385
X71890Y36830
X70889Y34290
X75609Y2540
X69171Y2540
X72390Y31750
X86285Y1841
X80847Y1841
X85090Y34290
X85090Y36830
X80772Y35560
X82042Y38100
X85090Y38100
X79883Y32575
X87376Y32385
X83066Y36830
X82065Y34290
X86785Y2540
X80347Y2540
X83566Y31750
X97461Y1841
X92023Y1841
X96266Y34290
X96266Y36830
X91948Y35560
X93218Y38100
X96266Y38100
X91059Y32575
X98552Y32385
X94242Y36830
X93241Y34290
X97961Y2540
X91523Y2540
X94742Y31750
X108637Y1841
X103199Y1841
X107442Y34290
X107442Y36830
X103124Y35560
X104394Y38100
X107442Y38100
X102235Y32575
X109728Y32385
X105418Y36830
X104417Y34290
X109137Y2540
X102699Y2540
X105918Y31750
X119813Y1841
X114375Y1841
X118618Y34290
X118618Y36830
X114300Y35560
X115570Y38100
X118618Y38100
X113411Y32575
X120904Y32385
X116594Y36830
X115593Y34290
X120313Y2540
X113875Y2540
X117094Y31750
X130989Y1841
X125551Y1841
X129794Y34290
X129794Y36830
X125476Y35560
X126746Y38100
X129794Y38100
X124587Y32575
X132080Y32385
X127770Y36830
X126769Y34290
X131489Y2540
X125051Y2540
X128270Y31750
X142165Y1841
X136727Y1841
X140970Y34290
X140970Y36830
X136652Y35560
X137922Y38100
X140970Y38100
X135763Y32575
X143256Y32385
X138946Y36830
X137945Y34290
X142665Y2540
X139446Y31750
X153341Y1841
X147903Y1841
X152146Y34290
X152146Y36830
X147828Y35560
X149098Y38100
X152146Y38100
X146939Y32575
X154432Y32385
X150122Y36830
X149121Y34290
X153841Y2540
X147403Y2540
X150622Y31750
X164517Y1841
X159079Y1841
X163322Y34290
X163322Y36830
X159004Y35560
X160274Y38100
X163322Y38100
X158115Y32575
X165608Y32385
X161298Y36830
X160297Y34290
X165017Y2540
X158579Y2540
X161798Y31750
X175693Y1841
X170255Y1841
X174498Y34290
X174498Y36830
X170180Y35560
X171450Y38100
X174498Y38100
X169291Y32575
X176784Y32385
X172474Y36830
X171473Y34290
X176193Y2540
X169755Y2540
X172974Y31750
X8053Y42990
X2615Y42990
X6858Y75438
X6858Y77978
X2540Y76708
X3810Y79248
X6858Y79248
X1651Y73724
X9144Y73533
X4834Y77978
X3833Y75438
X8553Y43688
X2115Y43688
X5334Y72898
X19229Y42990
X13791Y42990
X18034Y75438
X18034Y77978
X13716Y76708
X14986Y79248
X18034Y79248
X12827Y73724
X20320Y73533
X16010Y77978
X15009Y75438
X19729Y43688
X13291Y43688
X16510Y72898
X30405Y42990
X24967Y42990
X29210Y75438
X29210Y77978
X24892Y76708
X26162Y79248
X29210Y79248
X24003Y73724
X31496Y73533
X27186Y77978
X26185Y75438
X30905Y43688
X24467Y43688
X27686Y72898
X41581Y42990
X36143Y42990
X40386Y75438
X40386Y77978
X36068Y76708
X37338Y79248
X40386Y79248
X35179Y73724
X42672Y73533
X38362Y77978
X37361Y75438
X42081Y43688
X35643Y43688
X38862Y72898
X52757Y42990
X47319Y42990
X51562Y75438
X51562Y77978
X47244Y76708
X48514Y79248
X51562Y79248
X46355Y73724
X53848Y73533
X49538Y77978
X48537Y75438
X53257Y43688
X46819Y43688
X50038Y72898
X63933Y42990
X58495Y42990
X62738Y75438
X62738Y77978
X58420Y76708
X59690Y79248
X62738Y79248
X57531Y73724
X65024Y73533
X60714Y77978
X59713Y75438
X64433Y43688
X57995Y43688
X61214Y72898
X75109Y42990
X69671Y42990
X73914Y75438
X73914Y77978
X69596Y76708
X70866Y79248
X73914Y79248
X68707Y73724
X76200Y73533
X71890Y77978
X70889Y75438
X75609Y43688
X69171Y43688
X72390Y72898
X86285Y42990
X80847Y42990
X85090Y75438
X85090Y77978
X80772Y76708
X82042Y79248
X85090Y79248
X79883Y73724
X87376Y73533
X83066Y77978
X82065Y75438
X86785Y43688
X80347Y43688
X83566Y72898
X97461Y42990
X92023Y42990
X96266Y75438
X96266Y77978
X91948Y76708
X93218Y79248
X96266Y79248
X91059Y73724
X98552Y73533
X94242Y77978
X93241Y75438
X97961Y43688
X91523Y43688
X94742Y72898
X108637Y42990
X103199Y42990
X107442Y75438
X107442Y77978
X103124Y76708
X104394Y79248
X107442Y79248
X102235Y73724
X109728Y73533
X105418Y77978
X104417Y75438
X109137Y43688
X102699Y43688
X105918Y72898
X119813Y42990
X114375Y42990
X118618Y75438
X118618Y77978
X114300Y76708
X115570Y79248
X118618Y79248
X113411Y73724
X120904Y73533
X116594Y77978
X115593Y75438
X120313Y43688
X113875Y43688
X117094Y72898
X130989Y42990
X125551Y42990
X129794Y75438
X129794Y77978
X125476Y76708
X126746Y79248
X129794Y79248
X124587Y73724
X132080Y73533
X127770Y77978
X126769Y75438
X131489Y43688
X125051Y43688
X128270Y72898
X142165Y42990
X136727Y42990
X140970Y75438
X140970Y77978
X136652Y76708
X137922Y79248
X140970Y79248
X135763Y73724
X143256Y73533
X138946Y77978
X137945Y75438
X142665Y43688
X136227Y43688
X139446Y72898
X153341Y42990
X147903Y42990
X152146Y75438
X152146Y77978
X147828Y76708
X149098Y79248
X152146Y79248
X146939Y73724
X154432Y73533
X150122Y77978
X149121Y75438
X153841Y43688
X147403Y43688
X150622Y72898
X164517Y42990
X159079Y42990
X163322Y75438
X163322Y77978
X159004Y76708
X160274Y79248
X163322Y79248
X158115Y73724
X165608Y73533
X161298Y77978
X160297Y75438
X165017Y43688
X158579Y43688
X161798Y72898
X175693Y42990
X170255Y42990
X174498Y75438
X174498Y77978
X170180Y76708
X171450Y79248
X174498Y79248
X169291Y73724
X176784Y73533
X172474Y77978
X171473Y75438
X176193Y43688
X169755Y43688
X172974Y72898
X8053Y84138
X2615Y84138
X6858Y116586
X6858Y119126
X2540Y117856
X3810Y120396
X6858Y120396
X1651Y114871
X9144Y114681
X4834Y119126
X3833Y116586
X8553Y84836
X2115Y84836
X5334Y114046
X19229Y84138
X13791Y84138
X18034Y116586
X18034Y119126
X13716Y117856
X14986Y120396
X18034Y120396
X12827Y114871
X20320Y114681
X16010Y119126
X15009Y116586
X19729Y84836
X13291Y84836
X16510Y114046
X30405Y84138
X24967Y84138
X29210Y116586
X29210Y119126
X24892Y117856
X26162Y120396
X29210Y120396
X24003Y114871
X31496Y114681
X27186Y119126
X26185Y116586
X30905Y84836
X24467Y84836
X27686Y114046
X41581Y84138
X36143Y84138
X40386Y116586
X40386Y119126
X36068Y117856
X37338Y120396
X40386Y120396
X35179Y114871
X42672Y114681
X38362Y119126
X37361Y116586
X42081Y84836
X35643Y84836
X38862Y114046
X52757Y84138
X47319Y84138
X51562Y116586
X51562Y119126
X47244Y117856
X48514Y120396
X51562Y120396
X46355Y114871
X53848Y114681
X49538Y119126
X48537Y116586
X53257Y84836
X46819Y84836
X50038Y114046
X63933Y84138
X58495Y84138
X62738Y116586
X62738Y119126
X58420Y117856
X59690Y120396
X62738Y120396
X57531Y114871
X65024Y114681
X60714Y119126
X59713Y116586
X64433Y84836
X57995Y84836
X61214Y114046
X75109Y84138
X69671Y84138
X73914Y116586
X73914Y119126
X69596Y117856
X70866Y120396
X73914Y120396
X68707Y114871
X71890Y119126
X70889Y116586
X75609Y84836
X69171Y84836
X72390Y114046
X86285Y84138
X80847Y84138
X85090Y116586
X85090Y119126
X80772Y117856
X82042Y120396
X85090Y120396
X79883Y114871
X87376Y114681
X83066Y119126
X82065Y116586
X86785Y84836
X80347Y84836
X83566Y114046
X97461Y84138
X92023Y84138
X96266Y116586
X96266Y119126
X91948Y117856
X93218Y120396
X96266Y120396
X91059Y114871
X98552Y114681
X94242Y119126
X93241Y116586
X97961Y84836
X91523Y84836
X94742Y114046
X108637Y84138
X103199Y84138
X107442Y116586
X107442Y119126
X103124Y117856
X104394Y120396
X107442Y120396
X102235Y114871
X109728Y114681
X105418Y119126
X104417Y116586
X109137Y84836
X102699Y84836
X105918Y114046
X119813Y84138
X114375Y84138
X118618Y116586
X118618Y119126
X114300Y117856
X115570Y120396
X118618Y120396
X113411Y114871
X120904Y114681
X116594Y119126
X115593Y116586
X120313Y84836
X113875Y84836
X117094Y114046
X130989Y84138
X125551Y84138
X129794Y116586
X129794Y119126
X125476Y117856
X126746Y120396
X129794Y120396
X124587Y114871
X132080Y114681
X127770Y119126
X126769Y116586
X131489Y84836
X125051Y84836
X128270Y114046
X142165Y84138
X136727Y84138
X140970Y116586
X140970Y119126
X136652Y117856
X137922Y120396
X140970Y120396
X135763Y114871
X143256Y114681
X138946Y119126
X137945Y116586
X142665Y84836
X136227Y84836
X139446Y114046
X153341Y84138
X147903Y84138
X152146Y116586
X152146Y119126
X147828Y117856
X149098Y120396
X152146Y120396
X146939Y114871
X154432Y114681
X150122Y119126
X149121Y116586
X153841Y84836
X147403Y84836
X150622Y114046
X164517Y84138
X159079Y84138
X163322Y116586
X163322Y119126
X159004Y117856
X160274Y120396
X163322Y120396
X158115Y114871
X165608Y114681
X161298Y119126
X160297Y116586
X165017Y84836
X158579Y84836
X161798Y114046
X175693Y84138
X170255Y84138
X174498Y116586
X174498Y119126
X170180Y117856
X171450Y120396
X174498Y120396
X169291Y114871
X176784Y114681
X172474Y119126
X171473Y116586
X176193Y84836
X169755Y84836
X172974Y114046
X76200Y114681
X136227Y2540
M30